<svg xmlns="http://www.w3.org/2000/svg" viewBox="0 0 512 512"><path d="M439.3 65.8c-7.8-7.8-20.5-7.8-28.3 0l-9 9c-1.4-.3-2.8-.5-4.2-.5H129.2c-10.3.1-18.6 8.4-18.6 18.7v114.9h25.5v-98.2c0-4.8 3.9-8.8 8.8-8.8h220.6l-97.2 50.5c-3 1.5-4.8 4.5-4.8 7.8v54.1L235 241.8l-57.7-59.9c-.5-.6-1.3-.9-2.1-.9-1.6 0-2.9 1.3-2.9 2.9v44.7c0 1.6-1.3 2.9-2.9 2.9H42.9c-1.6 0-2.9 1.3-2.9 2.9v49.1c0 1.6 1.3 2.9 2.9 2.9h126.5c1.6 0 2.9 1.3 2.8 3.3v14.9l-36.1 36.1V310h-25.5v56.2l-32.2 32.2c-7.8 7.8-7.8 20.5 0 28.3 3.9 3.9 9 5.9 14.1 5.9s10.2-2 14.1-5.9l11.4-11.4 23.5-23.5 121.9-121.9 153-152.9 22.9-22.9c7.8-7.8 7.8-20.5 0-28.3zM263.5 392.4h-82.6L154.3 419h109.2v65c0 1.4.3 2.8 1 4.1 2.2 4.4 7.6 6 11.9 3.8l130-67.6c6.1-3.3 10-9.6 10-16.6V157.3L263.5 309.9v82.5z"/></svg>