<svg data-name="Layer 1" xmlns="http://www.w3.org/2000/svg" viewBox="0 0 512 512"><path d="M446.994 53.008a20.038 20.038 0 00-28.3 0l-38.2 38.2v-.7h-106.4l52.8 54.3-10.9 10.9-60-61.7-106.9 109.9h118.7l-15.1 15.1h-109.2l36.4 72.7-11.6 11.6-42.2-84.3h-79.4l98 107.9-58.6 58.6a19.976 19.976 0 1028.072 28.427l.128-.127 332.7-332.5a20.038 20.038 0 000-28.3z"/><path d="M237.894 90.508h-106.5l6.3 103 100.2-103zM119.494 151.208l-2.8-46.2-72.2 98.9h78.2l-3.2-52.7zM348.794 219.008l-136.8 136.6 44 87.9 112.5-224.5h-19.7zM190.394 377.208l33.4 36.8-23.4-46.8-10 10zM390.894 176.908l-1.6 27h78.2l-43.6-59.8-33 32.8zM288.194 414.008l177.1-195h-79.4l-97.7 195z"/></svg>